TITLE ""
FILE "Disc6Track48.mp3" MP3
  TRACK 01 AUDIO
    TITLE "Disc6Track48_01"
    INDEX 01 00:00:00
  TRACK 02 AUDIO
    TITLE "Disc6Track48_02"
    INDEX 01 00:01:14
  TRACK 03 AUDIO
    TITLE "Disc6Track48_03"
    INDEX 01 00:03:34
  TRACK 04 AUDIO
    TITLE "Disc6Track48_04"
    INDEX 01 00:04:59
  TRACK 05 AUDIO
    TITLE "Disc6Track48_05"
    INDEX 01 00:08:69
  TRACK 06 AUDIO
    TITLE "Disc6Track48_06"
    INDEX 01 00:09:25
  TRACK 07 AUDIO
    TITLE "Disc6Track48_07"
    INDEX 01 00:10:60
  TRACK 08 AUDIO
    TITLE "Disc6Track48_08"
    INDEX 01 00:12:49
  TRACK 09 AUDIO
    TITLE "Disc6Track48_09"
    INDEX 01 00:14:10
  TRACK 10 AUDIO
    TITLE "Disc6Track48_10"
    INDEX 01 00:14:48
  TRACK 11 AUDIO
    TITLE "Disc6Track48_11"
    INDEX 01 00:15:59
  TRACK 12 AUDIO
    TITLE "Disc6Track48_12"
    INDEX 01 00:19:35
  TRACK 13 AUDIO
    TITLE "Disc6Track48_13"
    INDEX 01 00:20:46
  TRACK 14 AUDIO
    TITLE "Disc6Track48_14"
    INDEX 01 00:24:60
  TRACK 15 AUDIO
    TITLE "Disc6Track48_15"
    INDEX 01 00:25:16
  TRACK 16 AUDIO
    TITLE "Disc6Track48_16"
    INDEX 01 00:26:37
  TRACK 17 AUDIO
    TITLE "Disc6Track48_17"
    INDEX 01 00:28:73
  TRACK 18 AUDIO
    TITLE "Disc6Track48_18"
    INDEX 01 00:30:17
  TRACK 19 AUDIO
    TITLE "Disc6Track48_19"
    INDEX 01 00:33:59
  TRACK 20 AUDIO
    TITLE "Disc6Track48_20"
    INDEX 01 00:34:13
  TRACK 21 AUDIO
    TITLE "Disc6Track48_21"
    INDEX 01 00:35:46
  TRACK 22 AUDIO
    TITLE "Disc6Track48_22"
    INDEX 01 00:37:39
  TRACK 23 AUDIO
    TITLE "Disc6Track48_23"
    INDEX 01 00:39:01
  TRACK 24 AUDIO
    TITLE "Disc6Track48_24"
    INDEX 01 00:39:34
  TRACK 25 AUDIO
    TITLE "Disc6Track48_25"
    INDEX 01 00:40:43
  TRACK 26 AUDIO
    TITLE "Disc6Track48_26"
    INDEX 01 00:41:58
  TRACK 27 AUDIO
    TITLE "Disc6Track48_27"
    INDEX 01 00:42:67
  TRACK 28 AUDIO
    TITLE "Disc6Track48_28"
    INDEX 01 00:47:27
  TRACK 29 AUDIO
    TITLE "Disc6Track48_29"
    INDEX 01 00:47:57
  TRACK 30 AUDIO
    TITLE "Disc6Track48_30"
    INDEX 01 00:49:13
  TRACK 31 AUDIO
    TITLE "Disc6Track48_31"
    INDEX 01 00:51:08
  TRACK 32 AUDIO
    TITLE "Disc6Track48_32"
    INDEX 01 00:52:35
  TRACK 33 AUDIO
    TITLE "Disc6Track48_33"
    INDEX 01 00:54:45
  TRACK 34 AUDIO
    TITLE "Disc6Track48_34"
    INDEX 01 00:54:75
  TRACK 35 AUDIO
    TITLE "Disc6Track48_35"
    INDEX 01 00:56:19
  TRACK 36 AUDIO
    TITLE "Disc6Track48_36"
    INDEX 01 00:57:57
  TRACK 37 AUDIO
    TITLE "Disc6Track48_37"
    INDEX 01 00:59:05
  TRACK 38 AUDIO
    TITLE "Disc6Track48_38"
    INDEX 01 00:59:42
  TRACK 39 AUDIO
    TITLE "Disc6Track48_39"
    INDEX 01 01:00:71
  TRACK 40 AUDIO
    TITLE "Disc6Track48_40"
    INDEX 01 01:03:03
  TRACK 41 AUDIO
    TITLE "Disc6Track48_41"
    INDEX 01 01:04:32
  TRACK 42 AUDIO
    TITLE "Disc6Track48_42"
    INDEX 01 01:06:43
  TRACK 43 AUDIO
    TITLE "Disc6Track48_43"
    INDEX 01 01:06:72
  TRACK 44 AUDIO
    TITLE "Disc6Track48_44"
    INDEX 01 01:08:22
  TRACK 45 AUDIO
    TITLE "Disc6Track48_45"
    INDEX 01 01:09:35
  TRACK 46 AUDIO
    TITLE "Disc6Track48_46"
    INDEX 01 01:10:58
  TRACK 47 AUDIO
    TITLE "Disc6Track48_47"
    INDEX 01 01:15:08
